<?xml version="1.0" standalone="no"?>
<!DOCTYPE svg PUBLIC "-//W3C//DTD SVG 20010904//EN"
 "http://www.w3.org/TR/2001/REC-SVG-20010904/DTD/svg10.dtd">
<svg version="1.0" xmlns="http://www.w3.org/2000/svg"
 width="433.000000pt" height="433.000000pt" viewBox="0 0 433.000000 433.000000"
 preserveAspectRatio="xMidYMid meet">
<metadata>
Created by potrace 1.11, written by Peter Selinger 2001-2013
</metadata>
<g transform="translate(0.000000,433.000000) scale(0.100000,-0.100000)"
fill="#000000" stroke="none">
<path d="M0 4202 c0 -115 2 -129 20 -145 11 -9 20 -14 20 -11 0 3 7 -2 16 -10
14 -14 15 -63 3 -156 -5 -37 2 -59 22 -65 11 -4 18 -9 15 -12 -3 -4 2 -12 12
-19 15 -12 15 -15 2 -23 -8 -6 -15 -14 -16 -18 -3 -24 -19 -43 -38 -43 -17 0
-18 -2 -6 -10 12 -7 12 -12 2 -22 -9 -9 -12 -9 -12 0 0 7 -7 12 -16 12 -8 0
-12 -4 -9 -10 3 -5 1 -10 -4 -10 -8 0 -11 -111 -11 -351 l0 -351 60 -59 c32
-33 66 -59 75 -59 8 0 29 -20 46 -44 19 -26 46 -50 68 -59 20 -8 66 -27 103
-42 37 -15 72 -33 78 -40 13 -15 9 -63 -6 -73 -6 -4 -11 -32 -12 -62 -1 -30
-7 -67 -13 -82 -12 -28 -42 -38 -55 -17 -4 8 -9 7 -15 -2 -6 -11 -13 -9 -31 7
-13 12 -28 20 -34 17 -6 -2 -23 8 -37 21 -15 14 -27 21 -27 15 0 -5 -9 -4 -20
3 -11 7 -20 20 -20 30 0 9 -10 24 -22 32 -12 9 -18 16 -13 16 4 0 -1 10 -13
23 -15 16 -18 27 -12 37 16 24 11 74 -7 91 -10 9 -31 33 -46 53 -15 20 -32 36
-37 36 -6 0 -10 -73 -10 -183 l0 -183 33 -35 c18 -19 49 -45 68 -57 19 -12 70
-63 114 -113 44 -51 101 -115 126 -143 63 -71 109 -132 109 -145 0 -7 6 -14
14 -17 8 -3 32 -31 53 -62 21 -31 46 -66 56 -77 10 -11 39 -51 64 -90 25 -38
52 -74 60 -78 7 -4 25 -30 38 -58 18 -34 31 -49 45 -49 11 0 20 -4 20 -10 0
-5 6 -10 13 -10 7 0 27 -13 45 -29 32 -30 41 -51 22 -51 -5 0 -10 -7 -10 -15
0 -9 -6 -12 -15 -9 -11 5 -15 -1 -15 -20 0 -16 -6 -26 -15 -26 -17 0 -20 -25
-5 -35 6 -3 10 -15 10 -25 0 -11 12 -27 26 -37 25 -16 27 -16 40 2 17 23 11
33 -18 28 -17 -3 -26 3 -35 21 -14 33 4 48 24 20 12 -16 15 -17 23 -4 8 13 10
12 10 -4 0 -14 5 -17 21 -13 14 4 32 -5 59 -29 21 -19 40 -30 42 -24 4 13 38
3 38 -11 0 -5 -7 -9 -16 -9 -10 0 -2 -10 20 -25 20 -14 43 -25 51 -25 8 0 15
-4 15 -10 0 -5 10 -18 22 -30 12 -11 17 -20 11 -20 -6 0 -9 -9 -6 -20 7 -26
-13 -26 -27 1 -7 11 -14 19 -17 16 -8 -9 37 -87 51 -87 8 0 17 -7 20 -16 3 -8
2 -12 -4 -9 -16 10 -12 -2 13 -43 13 -20 31 -53 40 -72 9 -19 25 -48 37 -65
24 -36 25 -49 4 -41 -14 6 -15 4 -4 -10 8 -9 10 -18 4 -22 -10 -8 -14 -20 -24
-79 -7 -42 -25 -76 -56 -107 -9 -9 -14 -20 -10 -23 3 -3 -1 -11 -9 -17 -13
-10 -13 -14 0 -40 12 -23 13 -40 5 -88 -5 -36 -6 -69 0 -83 6 -15 6 -27 0 -30
-6 -4 -3 -16 6 -31 9 -13 14 -33 11 -45 -3 -12 -3 -28 0 -36 5 -12 8 -12 15
-1 7 10 8 9 4 -5 -6 -19 12 -67 26 -67 5 0 6 -5 3 -10 -3 -6 1 -10 11 -10 11
0 15 -6 11 -19 -3 -13 -1 -18 8 -15 7 3 16 -4 20 -15 6 -21 10 -21 433 -21
305 0 423 3 415 11 -6 6 -59 16 -118 22 -90 9 -110 14 -128 34 -12 12 -26 23
-32 23 -5 0 -23 11 -39 25 -16 14 -33 25 -38 25 -4 0 -10 0 -13 0 -2 0 -21 16
-42 35 -21 20 -75 60 -120 91 l-82 55 -7 57 c-9 70 -6 102 12 123 8 9 12 18 9
21 -3 3 14 20 37 39 23 19 54 46 69 61 15 16 32 28 38 28 5 0 14 6 18 13 12
21 100 39 182 38 90 -1 195 -31 244 -69 20 -15 47 -35 61 -45 34 -23 116 -132
116 -152 0 -9 5 -25 10 -36 7 -13 7 -19 0 -19 -14 0 -13 -27 2 -32 12 -4 13
-77 1 -113 -4 -11 -7 -24 -8 -30 0 -5 -10 -28 -22 -50 -33 -63 -49 -123 -35
-137 15 -15 24 -6 26 25 0 14 4 23 9 20 4 -2 7 14 7 36 0 25 10 59 27 88 53
96 65 137 58 197 -5 37 -3 45 9 40 10 -4 13 2 11 23 -6 63 -23 123 -44 157
-13 20 -21 42 -18 49 2 6 -5 25 -16 40 -10 16 -16 31 -13 34 11 11 -16 33 -40
33 -27 0 -30 -9 -11 -30 6 -8 3 -7 -9 3 -28 23 -37 21 -23 -5 l12 -23 -24 20
c-35 28 -79 76 -79 86 0 5 7 6 15 3 11 -4 13 -2 9 9 -3 9 -13 13 -25 10 -15
-4 -22 0 -26 16 -5 21 -14 25 -42 22 -7 -2 -10 2 -6 8 3 6 -3 12 -14 12 -12 1
-25 3 -31 4 -5 1 -18 3 -28 4 -10 0 -18 10 -19 22 -2 18 0 19 15 7 15 -12 16
-11 4 4 -8 9 -19 15 -26 12 -7 -3 -22 -1 -34 3 -20 8 -20 11 -8 34 7 14 10 33
5 44 -18 47 -6 47 37 0 26 -27 41 -42 34 -32 -27 37 -2 23 60 -34 91 -85 107
-91 70 -29 -16 27 -26 50 -22 50 4 0 -4 9 -17 19 -21 16 -41 78 -21 66 5 -3
10 0 12 6 2 6 19 -7 38 -30 19 -23 50 -59 69 -81 19 -23 38 -37 42 -33 10 10
0 53 -11 53 -4 0 -11 7 -14 16 -5 13 -2 15 14 11 18 -5 19 -3 8 11 -10 12 -10
14 0 8 6 -4 17 -4 23 -1 6 4 -1 13 -16 21 -15 8 -31 11 -36 8 -5 -3 -6 1 -3 9
6 16 30 16 62 -1 31 -18 27 -10 -9 17 -18 13 -29 19 -25 12 11 -17 -5 -13 -26
6 -18 16 -18 16 -12 0 3 -10 1 -17 -5 -17 -7 0 -14 6 -17 14 -3 8 -12 12 -20
9 -8 -3 -14 0 -14 6 0 7 -6 11 -12 10 -27 -3 -36 2 -41 21 -3 11 -11 20 -17
20 -10 0 -10 -3 0 -15 11 -14 9 -14 -16 0 -38 20 -58 19 -50 -1 3 -9 6 -18 6
-20 0 -2 5 -4 11 -4 8 0 7 6 -2 18 -13 16 -13 16 7 -1 11 -9 26 -17 32 -17 7
0 12 -8 12 -19 0 -17 -3 -18 -34 -7 -48 17 -71 37 -54 48 9 6 3 8 -15 4 -19
-5 -29 -2 -33 9 -4 8 -13 15 -21 15 -13 0 -13 -3 -3 -15 10 -12 10 -15 -3 -15
-9 0 -17 10 -19 23 -2 15 -9 21 -20 19 -12 -2 -18 4 -18 18 0 26 15 26 34 -2
9 -12 19 -19 22 -15 4 4 15 0 24 -8 16 -14 18 -14 24 0 3 9 -1 23 -9 31 -19
19 -19 25 0 50 8 11 14 14 15 6 0 -7 11 -17 25 -24 13 -6 22 -14 20 -18 -6
-10 75 -48 104 -48 30 -1 39 -11 21 -22 -13 -8 -12 -10 2 -10 9 0 25 -3 35 -7
17 -6 17 -6 0 14 -14 16 -15 22 -5 25 7 3 -6 8 -30 12 -23 3 -45 13 -48 21 -4
8 -12 15 -19 15 -7 0 -15 9 -18 20 -5 21 2 26 19 12 20 -18 64 -32 64 -21 0 6
-9 13 -20 16 -11 3 -20 10 -20 15 0 5 5 6 11 2 6 -3 15 -1 19 6 5 9 13 6 29
-11 11 -12 23 -20 26 -17 9 9 -6 38 -20 38 -6 0 -20 9 -30 20 -10 11 -24 20
-32 20 -7 0 -25 7 -39 16 -22 15 -24 15 -18 0 7 -17 -11 -23 -21 -6 -3 5 -11
8 -18 6 -7 -1 -9 -1 -5 1 12 7 9 31 -4 40 -7 4 -13 14 -14 21 -1 6 -2 19 -2
27 -2 18 -42 20 -42 3 0 -7 -8 -1 -17 12 -19 28 -34 40 -48 39 -5 0 -4 -3 3
-6 6 -2 12 -12 12 -20 0 -13 -3 -13 -15 -3 -8 7 -15 23 -15 36 0 29 -14 38
-30 19 -7 -8 -17 -12 -23 -8 -6 4 -8 0 -5 -8 5 -12 -4 -15 -42 -15 -42 0 -49
3 -53 23 -2 12 0 24 6 26 5 1 11 14 12 27 1 14 3 30 4 35 1 10 35 54 66 86 8
9 15 21 15 28 0 18 42 91 52 91 4 0 7 3 6 8 -1 4 6 20 16 35 10 15 16 30 13
34 -21 21 145 153 275 219 77 39 145 45 218 19 23 -8 59 -15 79 -15 51 -1 134
-22 224 -59 92 -36 88 -36 80 -15 -4 12 -1 15 13 12 11 -2 19 -12 19 -24 0
-24 59 -86 125 -131 25 -17 53 -39 62 -49 16 -18 65 -141 91 -226 13 -45 0
-138 -40 -270 -22 -74 -31 -91 -64 -118 -22 -17 -39 -37 -39 -45 0 -8 -9 -30
-20 -50 -11 -19 -19 -38 -19 -42 0 -4 -7 -10 -16 -13 -15 -5 -16 -7 -1 -19 9
-7 14 -17 11 -21 -3 -5 -7 -32 -10 -62 -3 -29 -10 -64 -15 -78 -8 -23 -20
-132 -20 -187 0 -12 -7 -37 -15 -56 -14 -34 -14 -35 11 -41 29 -8 79 13 79 33
0 8 6 16 13 18 6 3 12 -2 12 -10 0 -7 8 -14 18 -14 23 0 52 26 52 49 0 10 6
18 13 19 6 1 1 4 -13 8 -20 6 -24 13 -22 35 2 15 -2 34 -9 42 -14 17 -24 138
-11 130 16 -9 3 56 -14 75 -9 10 -13 23 -8 30 5 9 2 10 -9 6 -19 -7 -22 9 -7
33 6 9 5 17 -3 23 -9 7 -9 10 1 14 6 2 12 10 12 16 0 7 7 25 15 40 8 15 11 35
8 44 -4 11 -2 14 8 11 8 -3 19 2 26 11 11 14 21 7 78 -54 95 -101 112 -130
134 -225 18 -77 23 -88 63 -122 61 -52 173 -92 244 -86 62 5 167 -12 204 -33
42 -24 89 -71 139 -139 72 -97 98 -148 117 -225 9 -38 39 -117 66 -175 64
-137 82 -150 208 -150 l90 0 0 2134 c0 2024 -1 2135 -17 2140 -10 2 -39 7 -66
11 -26 3 -59 10 -74 16 -14 5 -28 8 -30 5 -3 -2 -23 2 -45 10 -34 12 -346 14
-2069 14 l-2029 0 0 -128z m1300 -1116 c293 -95 354 -134 425 -267 88 -165 89
-167 89 -264 1 -73 -2 -90 -14 -91 -8 0 -20 -2 -26 -2 -14 -2 -23 -91 -10 -95
5 -2 2 -14 -7 -28 -8 -13 -19 -41 -22 -61 -4 -21 -10 -38 -14 -38 -10 0 -31
-62 -31 -93 0 -20 -5 -27 -20 -27 -12 0 -20 -7 -20 -17 0 -10 -7 -26 -14 -35
-14 -20 -31 -25 -20 -7 8 14 -38 -10 -48 -25 -4 -6 -9 -4 -14 7 -7 18 -40 23
-46 7 -4 -13 -48 -22 -48 -9 0 12 23 52 35 61 5 4 7 10 3 13 -3 3 -18 -5 -33
-19 -22 -21 -31 -24 -42 -14 -10 8 -17 8 -25 0 -6 -6 -19 -7 -32 -2 -11 4 -52
18 -91 30 -38 12 -80 26 -92 31 -13 5 -33 13 -45 17 -13 5 -48 21 -78 35 -30
15 -59 27 -64 27 -4 0 -20 9 -35 19 -15 11 -38 23 -52 26 -13 4 -43 23 -66 44
-41 37 -42 39 -24 57 15 16 16 22 5 39 -11 17 -10 26 6 60 11 22 19 46 20 53
0 16 76 89 110 107 14 7 43 15 65 19 79 13 95 18 90 26 -3 4 -34 7 -70 7 -58
-2 -65 0 -65 17 0 18 -1 19 -20 1 -13 -11 -20 -14 -20 -6 0 24 -34 6 -41 -21
-5 -21 -4 -28 7 -28 9 0 13 -4 9 -10 -3 -5 -11 -7 -19 -4 -7 3 -18 -6 -25 -18
-29 -56 -41 -72 -41 -59 0 24 -15 0 -30 -46 -7 -24 -16 -43 -19 -43 -3 0 -7
-19 -9 -41 -1 -23 -9 -53 -16 -67 -13 -24 -14 -25 -24 -6 -5 10 -10 32 -10 48
0 27 -18 50 -33 40 -16 -9 -57 84 -42 95 13 10 9 94 -4 98 -7 3 -13 13 -13 24
0 25 -48 49 -60 30 -6 -11 -10 -9 -19 8 -6 11 -15 20 -19 20 -40 -6 -44 37 -7
77 14 15 25 31 25 36 0 5 5 6 10 3 6 -3 10 -1 10 5 0 7 28 40 63 74 89 88 206
156 332 192 62 18 269 12 335 -10z m-1270 -366 c0 -5 -2 -10 -4 -10 -3 0 -8 5
-11 10 -3 6 -1 10 4 10 6 0 11 -4 11 -10z m114 -255 c-4 -8 -8 -15 -10 -15 -2
0 -4 7 -4 15 0 8 4 15 10 15 5 0 7 -7 4 -15z m1586 -379 c0 -8 -4 -18 -10 -21
-5 -3 -10 3 -10 14 0 12 5 21 10 21 6 0 10 -6 10 -14z m30 -136 c0 -5 -2 -10
-4 -10 -3 0 -8 5 -11 10 -3 6 -1 10 4 10 6 0 11 -4 11 -10z m7 -82 c-3 -7 -5
-2 -5 12 0 14 2 19 5 13 2 -7 2 -19 0 -25z m8 -27 c3 -5 1 -12 -5 -16 -5 -3
-10 1 -10 9 0 18 6 21 15 7z m-175 -331 c0 -11 -7 -23 -16 -27 -8 -3 -13 -12
-10 -20 3 -8 -1 -25 -10 -37 -8 -13 -14 -28 -13 -32 4 -22 -2 -34 -16 -34 -11
0 -15 -8 -13 -27 3 -26 1 -28 -39 -29 -30 -1 -40 3 -36 12 3 8 -2 17 -11 20
-9 3 -14 10 -11 14 3 4 -10 24 -28 43 -64 71 -103 139 -90 160 3 5 2 7 -3 4
-6 -3 -15 7 -21 24 -6 16 -7 29 -2 29 5 0 9 7 9 15 0 8 7 15 15 15 8 0 15 5
15 10 0 6 7 10 16 10 8 0 20 14 26 30 9 26 12 29 26 18 13 -11 14 -10 4 9 -7
12 -12 24 -12 28 0 3 50 -44 110 -105 68 -67 110 -118 110 -130z m-346 84 c9
-3 16 -11 16 -16 0 -7 -5 -6 -13 1 -8 6 -17 8 -20 4 -4 -3 -7 -1 -7 5 0 14 2
14 24 6z m643 -246 c-3 -7 -5 -2 -5 12 0 14 2 19 5 13 2 -7 2 -19 0 -25z m80
16 c-3 -3 -12 -4 -19 -1 -8 3 -5 6 6 6 11 1 17 -2 13 -5z m-677 -34 c0 -5 -2
-10 -4 -10 -3 0 -8 5 -11 10 -3 6 -1 10 4 10 6 0 11 -4 11 -10z m755 -10 c3
-5 1 -10 -4 -10 -6 0 -11 5 -11 10 0 6 2 10 4 10 3 0 8 -4 11 -10z m-775 -15
c7 -8 16 -12 21 -10 4 3 6 -3 4 -13 -2 -12 3 -18 17 -19 30 -3 78 -27 78 -40
0 -6 6 -13 13 -16 9 -3 9 -7 -2 -20 -16 -20 -38 -22 -44 -4 -7 20 -17 3 -10
-21 4 -18 13 -22 42 -22 27 0 32 -3 21 -10 -18 -12 -60 -13 -60 -2 0 5 -11 15
-25 22 -20 11 -22 16 -13 27 9 11 9 17 -3 23 -8 5 -14 16 -14 25 0 8 -3 14 -7
12 -14 -5 -47 37 -46 59 3 28 10 30 28 9z m545 5 c3 -5 1 -10 -4 -10 -6 0 -11
5 -11 10 0 6 2 10 4 10 3 0 8 -4 11 -10z m275 -10 c0 -5 -4 -10 -10 -10 -5 0
-10 5 -10 10 0 6 5 10 10 10 6 0 10 -4 10 -10z m-184 -27 c-7 -7 -26 7 -26 19
0 6 6 6 15 -2 9 -7 13 -15 11 -17z m-38 5 c7 -7 12 -18 12 -25 0 -11 -4 -11
-22 -1 -22 12 -26 13 -45 17 -11 2 19 21 33 21 5 0 15 -5 22 -12z m-59 -20
c14 -19 5 -23 -18 -9 -7 5 -10 14 -6 21 4 6 8 10 9 8 1 -2 8 -11 15 -20z m191
-13 c11 -13 10 -14 -4 -9 -9 3 -16 10 -16 15 0 13 6 11 20 -6z m-263 -72 c-3
-10 -5 -4 -5 12 0 17 2 24 5 18 2 -7 2 -21 0 -30z m-171 -57 c0 -30 -4 -52 -8
-50 -13 8 -7 104 6 104 1 0 2 -24 2 -54z m55 22 c1 -7 1 -20 0 -30 -1 -9 3
-19 9 -23 15 -9 13 -38 -2 -30 -7 4 -5 0 5 -8 19 -16 23 -52 6 -62 -6 -4 -8
-13 -5 -21 3 -8 -1 -14 -10 -14 -11 0 -14 -5 -10 -17 8 -20 -31 -150 -52 -175
-9 -10 -21 -18 -29 -18 -18 0 -17 -7 8 -41 24 -34 15 -38 -18 -7 l-23 21 0
-23 c0 -23 -1 -23 -14 -5 -11 16 -16 17 -29 6 -14 -11 -14 -17 -1 -53 18 -52
18 -64 -1 -48 -9 7 -13 21 -10 30 6 19 -19 45 -34 36 -20 -13 -22 35 -2 69 20
35 44 166 34 191 -3 8 0 14 5 14 6 0 12 -8 15 -17 3 -14 8 -9 19 16 11 23 13
43 8 63 -5 16 -5 28 1 28 5 0 12 -12 15 -27 4 -16 12 -31 17 -35 16 -10 38 18
30 39 -3 10 -3 15 2 11 15 -14 35 14 35 48 0 18 5 36 11 40 6 3 9 17 6 30 -2
13 0 24 4 24 5 0 10 -6 10 -12z m-34 -30 c-3 -8 -6 -5 -6 6 -1 11 2 17 5 13 3
-3 4 -12 1 -19z m103 -99 c-7 -16 -17 -26 -22 -23 -5 3 -2 14 7 24 13 14 13
19 3 24 -10 5 -10 7 0 12 6 3 13 15 13 27 2 16 3 14 6 -7 3 -15 -1 -41 -7 -57z
m-163 14 c-3 -10 -5 -2 -5 17 0 19 2 27 5 18 2 -10 2 -26 0 -35z m-347 21 c0
-9 -5 -14 -12 -12 -18 6 -21 28 -4 28 9 0 16 -7 16 -16z m605 -43 c-3 -6 -11
-11 -17 -11 -6 0 -6 6 2 15 14 17 26 13 15 -4z m85 -11 c0 -5 -9 -10 -21 -10
-11 0 -17 5 -14 10 3 6 13 10 21 10 8 0 14 -4 14 -10z m-196 -35 c-4 -8 -8
-15 -10 -15 -2 0 -4 7 -4 15 0 8 4 15 10 15 5 0 7 -7 4 -15z m519 -306 c55
-45 45 -55 -13 -13 -27 20 -50 38 -50 40 0 13 30 0 63 -27z m-768 -19 c-3 -5
2 -21 11 -35 17 -26 12 -59 -8 -53 -6 2 -12 19 -13 38 -1 19 -7 36 -14 38 -11
4 -10 6 0 13 19 12 32 11 24 -1z m863 -77 c7 -7 10 -13 5 -13 -11 0 -26 12
-43 35 -14 19 -14 19 5 5 11 -8 26 -21 33 -27z m-888 -159 c0 -8 -4 -12 -10
-9 -5 3 -10 10 -10 16 0 5 5 9 10 9 6 0 10 -7 10 -16z"/>
<path d="M873 2995 c-1 -33 2 -45 13 -45 8 0 14 -5 14 -11 0 -6 6 -9 13 -6 6
2 21 0 32 -6 29 -15 49 -15 63 0 13 13 12 14 -8 17 -6 0 -14 6 -18 13 -4 6
-20 16 -35 22 -16 6 -27 18 -27 30 0 17 -18 31 -39 31 -4 0 -8 -20 -8 -45z
m41 -7 c19 -38 20 -44 4 -30 -7 6 -17 10 -22 9 -5 -1 -10 10 -10 26 -2 36 9
34 28 -5z m66 -49 c0 -6 -4 -7 -10 -4 -5 3 -10 11 -10 16 0 6 5 7 10 4 6 -3
10 -11 10 -16z"/>
<path d="M1068 2733 c-33 -8 4 -29 63 -35 30 -4 73 -14 95 -24 21 -9 44 -18
49 -18 6 -1 27 -9 49 -19 21 -9 42 -17 46 -17 4 0 19 -9 34 -21 14 -11 26 -16
26 -11 0 11 -93 73 -135 90 -16 7 -43 14 -60 16 -62 8 -135 28 -135 37 0 9 -4
10 -32 2z"/>
<path d="M881 2714 c0 -11 3 -14 6 -6 3 7 2 16 -1 19 -3 4 -6 -2 -5 -13z"/>
<path d="M1247 2619 c7 -7 15 -10 18 -7 3 3 -2 9 -12 12 -14 6 -15 5 -6 -5z"/>
<path d="M1296 2595 c21 -16 44 -19 44 -6 0 5 -10 11 -22 15 -37 9 -43 7 -22
-9z"/>
<path d="M1450 2583 c0 -5 10 -18 23 -29 l22 -19 -20 25 c-11 14 -21 27 -22
29 -2 2 -3 0 -3 -6z"/>
<path d="M1400 2555 c0 -2 20 -25 45 -51 25 -27 45 -44 45 -39 0 17 -39 70
-52 70 -7 1 -12 6 -11 11 1 6 -5 11 -13 11 -7 0 -14 -1 -14 -2z"/>
<path d="M715 2450 c-3 -5 -1 -10 4 -10 6 0 11 5 11 10 0 6 -2 10 -4 10 -3 0
-8 -4 -11 -10z"/>
<path d="M1531 2324 c0 -11 3 -14 6 -6 3 7 2 16 -1 19 -3 4 -6 -2 -5 -13z"/>
<path d="M1525 2210 c-3 -5 1 -10 9 -10 9 0 16 5 16 10 0 6 -4 10 -9 10 -6 0
-13 -4 -16 -10z"/>
<path d="M0 1663 c0 -38 4 -63 8 -58 13 18 46 17 60 -2 13 -17 14 -17 7 5 -3
12 -2 22 3 22 8 0 22 -45 22 -71 0 -5 -10 -4 -23 2 -50 27 -58 29 -67 24 -6
-4 -10 -32 -10 -65 0 -42 4 -59 15 -64 19 -7 19 -26 0 -26 -12 0 -15 -17 -15
-89 0 -79 2 -92 20 -104 l21 -14 -21 -6 c-15 -4 -20 -13 -20 -36 0 -20 5 -31
14 -31 8 0 22 -3 32 -7 12 -4 15 -3 10 5 -4 7 -1 12 8 12 9 0 16 -8 16 -17 1
-16 2 -16 11 1 9 15 13 16 21 5 6 -10 7 -7 3 9 -6 21 -4 23 14 17 16 -5 20 -3
15 9 -3 9 -10 16 -15 16 -5 0 -9 6 -9 14 0 13 -23 28 -45 30 -5 1 -11 11 -13
24 -2 13 -10 26 -17 28 -8 3 -11 12 -8 20 3 8 10 11 16 7 5 -3 7 -1 4 5 -4 5
-15 8 -25 5 -27 -7 -24 27 4 37 29 11 39 29 25 43 -6 6 -11 22 -11 35 0 13 -4
20 -10 17 -6 -3 -10 1 -10 9 0 8 5 18 10 21 8 5 7 12 -2 23 -10 12 -10 14 0 8
6 -4 12 -2 12 3 0 6 5 11 10 11 6 0 10 -6 10 -13 0 -9 10 -12 31 -9 22 3 37
-2 57 -20 15 -13 36 -31 47 -39 18 -13 19 -13 7 3 -10 13 -10 17 0 21 7 3 3 6
-9 6 -31 1 -37 17 -13 34 21 14 17 29 -5 21 -7 -3 -16 -1 -19 5 -4 6 5 13 19
17 31 8 32 16 3 29 -13 6 -28 21 -35 34 -15 31 -40 46 -86 50 -4 1 -17 12 -29
26 -12 14 -25 25 -30 25 -4 0 -8 -30 -8 -67z m140 -45 c0 -6 -7 -7 -16 -4 -9
3 -18 6 -20 6 -3 0 -3 4 1 10 7 11 35 2 35 -12z m-50 -428 c0 -5 -2 -10 -4
-10 -3 0 -8 5 -11 10 -3 6 -1 10 4 10 6 0 11 -4 11 -10z"/>
<path d="M1767 1523 c-4 -3 -7 -11 -7 -17 0 -6 5 -5 12 2 6 6 9 14 7 17 -3 3
-9 2 -12 -2z"/>
<path d="M1700 1511 c0 -14 28 -33 42 -28 8 3 6 6 -6 6 -12 1 -16 6 -12 16 3
9 0 15 -9 15 -8 0 -15 -4 -15 -9z"/>
<path d="M684 1435 c-4 -10 -13 -13 -25 -10 -13 5 -19 1 -19 -10 0 -9 4 -14
10 -10 11 7 45 -24 46 -42 1 -7 2 -26 3 -43 1 -22 5 -28 16 -24 10 4 15 0 15
-14 0 -18 18 -32 41 -32 4 0 4 12 -2 28 -6 15 -12 48 -14 75 -3 49 -15 71 -47
88 -14 7 -20 6 -24 -6z"/>
<path d="M60 1376 c0 -4 7 -14 15 -22 8 -9 15 -11 15 -6 0 5 -7 15 -15 22 -8
7 -15 9 -15 6z"/>
<path d="M120 1330 c6 -11 13 -20 16 -20 2 0 0 9 -6 20 -6 11 -13 20 -16 20
-2 0 0 -9 6 -20z"/>
<path d="M370 1341 c0 -5 -9 -11 -20 -14 -11 -3 -20 -10 -20 -16 0 -16 27 -25
48 -15 9 4 23 6 30 5 18 -3 15 13 -6 32 -21 19 -32 22 -32 8z"/>
<path d="M164 1238 c17 -28 34 -29 32 -3 -1 16 -7 22 -22 21 -17 -1 -19 -4
-10 -18z"/>
<path d="M326 1251 c-4 -5 -2 -12 3 -15 5 -4 12 -2 15 3 4 5 2 12 -3 15 -5 4
-12 2 -15 -3z"/>
<path d="M210 1236 c0 -14 27 -42 34 -35 2 2 0 14 -5 27 -9 24 -29 30 -29 8z"/>
<path d="M1935 1230 c3 -5 10 -10 16 -10 5 0 9 5 9 10 0 6 -7 10 -16 10 -8 0
-12 -4 -9 -10z"/>
<path d="M2180 1220 c0 -5 7 -10 15 -10 8 0 15 -9 15 -20 0 -11 4 -20 10 -20
5 0 7 7 3 17 -7 17 0 16 52 -2 20 -7 20 -6 1 9 -11 9 -30 16 -42 16 -13 0 -26
5 -29 10 -3 6 -10 10 -16 10 -5 0 -9 -4 -9 -10z"/>
<path d="M160 1198 c0 -9 5 -20 10 -23 13 -8 13 5 0 25 -8 13 -10 13 -10 -2z"/>
<path d="M275 1197 c-5 -12 -1 -23 11 -32 11 -8 14 -14 7 -15 -7 0 -13 -6 -13
-14 0 -16 27 -29 42 -20 14 9 36 -26 30 -48 -3 -13 1 -18 19 -18 12 0 19 3 16
7 -4 3 -2 12 4 20 6 7 8 13 3 13 -5 0 -2 5 6 10 13 9 13 11 0 20 -8 6 -23 8
-32 6 -11 -2 -19 5 -23 23 -4 14 -10 20 -12 13 -3 -6 -9 -10 -13 -7 -5 3 -7
12 -3 20 3 9 -1 15 -10 15 -8 0 -17 6 -20 13 -3 8 -7 6 -12 -6z"/>
<path d="M2030 1170 c0 -5 5 -10 11 -10 5 0 7 5 4 10 -3 6 -8 10 -11 10 -2 0
-4 -4 -4 -10z"/>
<path d="M723 1140 c3 -11 2 -18 -2 -15 -5 2 -8 -9 -7 -25 1 -31 22 -40 43
-19 8 8 7 20 -5 45 -19 37 -37 46 -29 14z"/>
<path d="M20 1120 c25 -20 40 -25 40 -14 0 12 -30 34 -47 34 -15 0 -14 -3 7
-20z"/>
<path d="M1095 1130 c3 -5 8 -10 11 -10 2 0 4 5 4 10 0 6 -5 10 -11 10 -5 0
-7 -4 -4 -10z"/>
<path d="M60 1071 c0 -11 29 -35 35 -29 2 2 -4 12 -15 21 -11 9 -20 13 -20 8z"/>
<path d="M20 1065 c0 -3 14 -19 31 -35 29 -26 59 -31 59 -8 0 5 -5 6 -11 3 -6
-4 -20 2 -32 12 -27 24 -47 36 -47 28z"/>
<path d="M741 1051 c-20 -16 -21 -19 -7 -24 11 -4 15 -3 10 4 -4 8 1 9 15 4
15 -4 21 -2 21 9 0 23 -14 26 -39 7z"/>
<path d="M2298 1043 c7 -3 16 -2 19 1 4 3 -2 6 -13 5 -11 0 -14 -3 -6 -6z"/>
<path d="M2294 1017 c-3 -9 -12 -13 -20 -10 -8 3 -14 1 -14 -4 0 -13 22 -33
37 -33 8 0 26 -9 41 -19 15 -11 38 -23 52 -27 22 -6 23 -5 11 10 -18 22 -6 33
16 15 17 -13 17 -13 4 4 -13 16 -13 20 0 29 10 7 9 8 -6 2 -27 -11 -85 -8 -98
5 -7 7 -3 13 14 20 13 5 19 10 12 10 -6 1 -18 4 -27 7 -9 4 -18 0 -22 -9z"/>
<path d="M674 993 c4 -9 -4 -13 -20 -13 -21 0 -25 -3 -19 -17 4 -10 9 -27 12
-38 11 -47 12 -48 30 -34 14 12 15 11 9 -9 -7 -22 -6 -22 13 -10 12 7 21 18
21 24 0 6 13 14 29 17 44 9 47 34 6 51 -25 11 -33 19 -29 31 5 12 0 15 -25 13
-21 -1 -30 -7 -27 -15z"/>
<path d="M563 968 c-4 -7 -8 -19 -8 -27 0 -17 -25 -28 -25 -12 0 6 -11 11 -25
11 -14 0 -25 -4 -25 -9 0 -5 11 -12 25 -15 17 -4 25 -13 25 -29 1 -20 2 -20
11 -4 8 14 14 16 25 6 18 -15 31 -4 15 14 -6 8 -9 28 -7 45 4 35 1 39 -11 20z"/>
<path d="M2610 951 c0 -5 5 -13 10 -16 6 -3 10 -2 10 4 0 5 -4 13 -10 16 -5 3
-10 2 -10 -4z"/>
<path d="M135 920 c3 -5 8 -10 11 -10 2 0 4 5 4 10 0 6 -5 10 -11 10 -5 0 -7
-4 -4 -10z"/>
<path d="M610 922 c0 -4 4 -13 9 -20 7 -11 9 -11 14 1 3 9 -1 18 -9 21 -8 3
-14 2 -14 -2z"/>
<path d="M2446 922 c-2 -4 4 -14 15 -20 19 -12 19 -11 9 8 -12 22 -16 24 -24
12z"/>
<path d="M220 862 c-20 -7 -40 -28 -33 -35 3 -3 12 1 20 9 9 8 22 13 29 10 8
-3 14 -1 14 4 0 13 -13 18 -30 12z"/>
<path d="M2416 862 c-3 -6 1 -13 10 -16 23 -9 28 -2 10 13 -8 7 -17 8 -20 3z"/>
<path d="M725 840 c-3 -5 -1 -10 4 -10 6 0 11 5 11 10 0 6 -2 10 -4 10 -3 0
-8 -4 -11 -10z"/>
<path d="M850 826 c0 -9 5 -16 10 -16 6 0 10 4 10 9 0 6 -4 13 -10 16 -5 3
-10 -1 -10 -9z"/>
<path d="M2210 809 c0 -13 4 -30 9 -38 6 -9 8 -4 6 18 -3 38 -15 54 -15 20z"/>
<path d="M2430 819 c0 -5 9 -9 19 -9 11 0 27 -10 35 -22 11 -15 16 -18 16 -8
0 13 1 13 10 0 5 -8 12 -12 15 -8 3 3 -9 16 -27 29 -34 24 -68 33 -68 18z"/>
<path d="M178 765 c9 -24 20 -41 25 -38 4 3 11 -4 14 -16 6 -22 28 -27 52 -12
10 7 11 13 2 27 -9 17 -10 17 -11 2 0 -10 -5 -18 -12 -18 -6 0 -9 3 -5 6 3 3
-3 20 -13 36 -10 17 -16 36 -14 43 3 8 -6 12 -25 13 l-30 1 17 -44z"/>
<path d="M2741 784 c0 -11 3 -14 6 -6 3 7 2 16 -1 19 -3 4 -6 -2 -5 -13z"/>
<path d="M590 780 c0 -6 5 -10 10 -10 14 0 12 -27 -2 -33 -10 -4 -10 -6 -1 -6
6 -1 15 4 18 9 12 20 24 10 19 -17 -3 -15 -7 -30 -10 -35 -3 -4 0 -8 5 -8 6 0
11 9 11 19 0 11 5 21 11 23 14 5 0 38 -17 38 -8 0 -14 4 -14 9 0 5 -7 11 -15
15 -8 3 -15 1 -15 -4z"/>
<path d="M235 770 c-3 -5 -1 -10 4 -10 6 0 11 5 11 10 0 6 -2 10 -4 10 -3 0
-8 -4 -11 -10z"/>
<path d="M274 765 c17 -42 17 -54 2 -83 -9 -17 -13 -39 -10 -49 5 -14 2 -14
-14 5 -11 12 -24 22 -28 22 -4 0 -2 -6 4 -12 10 -10 8 -16 -10 -31 -13 -10
-17 -16 -10 -12 15 8 44 -13 36 -26 -3 -5 -10 -7 -15 -4 -15 10 -10 -12 6 -25
8 -7 15 -9 15 -5 0 4 6 2 13 -4 8 -6 17 -8 20 -4 4 3 7 2 7 -4 0 -25 -56 -30
-80 -8 -20 18 -80 37 -80 25 0 -4 7 -11 16 -14 8 -3 12 -11 8 -17 -4 -7 0 -9
13 -5 12 4 25 1 33 -9 15 -18 -1 -20 -18 -3 -9 9 -12 9 -12 0 0 -19 -34 -14
-59 9 -14 13 -21 29 -18 40 6 23 -15 25 -37 3 -19 -18 -21 -11 -4 15 9 15 8
22 -7 37 -18 18 -19 18 -12 1 10 -27 -3 -41 -19 -20 -11 15 -13 -3 -14 -134 0
-112 3 -153 13 -156 9 -4 9 -6 0 -6 -7 -1 -13 -6 -13 -12 0 -5 5 -7 11 -3 8 4
8 1 1 -13 -13 -23 -13 -193 -1 -193 5 0 9 -7 9 -15 0 -8 7 -15 15 -15 9 0 12
6 8 16 -4 12 -1 15 13 12 22 -4 32 -38 11 -38 -8 0 -20 -7 -27 -15 -11 -13 -1
-15 79 -15 52 0 91 4 91 10 0 5 -7 7 -15 4 -8 -4 -15 -1 -15 5 0 6 4 11 10 11
5 0 7 7 4 15 -4 10 -14 13 -29 9 -15 -4 -24 0 -29 11 -3 9 -11 13 -16 10 -15
-9 -60 3 -60 15 0 6 11 8 25 4 16 -4 25 -2 25 6 0 6 -4 9 -9 5 -6 -3 -15 4
-21 15 -6 11 -18 20 -28 20 -10 0 -13 3 -6 8 22 15 23 40 1 46 -20 6 -21 7 -5
19 15 12 15 14 0 24 -10 6 -13 14 -8 19 5 5 11 4 13 -3 3 -7 9 -13 14 -13 6 0
7 5 4 10 -7 12 18 40 36 40 6 0 18 -8 25 -17 13 -17 14 -17 8 -1 -4 12 -1 18
9 18 19 0 17 -57 -2 -70 -11 -6 -7 -9 15 -12 20 -2 29 -8 28 -20 -1 -9 4 -14
10 -12 7 3 24 -17 39 -43 15 -26 27 -42 27 -35 0 7 -7 24 -16 37 -22 33 -12
32 23 -3 20 -20 28 -39 28 -62 0 -19 6 -35 14 -38 8 -3 11 0 7 7 -4 6 -2 11 3
11 6 0 11 -5 11 -11 0 -6 9 -8 23 -4 18 6 20 5 10 -6 -20 -20 -15 -29 15 -28
15 0 21 3 15 6 -17 6 -17 33 0 33 7 0 23 9 35 21 21 19 49 18 37 -2 -4 -5 1
-9 9 -9 24 0 19 24 -10 59 -14 17 -22 36 -18 42 5 8 2 10 -8 7 -9 -4 -15 0
-15 8 0 8 9 14 19 14 11 0 18 -7 18 -19 0 -30 11 -51 26 -51 8 0 14 5 14 10 0
6 -7 10 -15 10 -8 0 -15 7 -15 15 0 8 3 15 6 15 11 0 84 -84 84 -97 0 -7 5
-13 10 -13 6 0 10 -7 10 -15 0 -15 -24 -16 -46 -2 -7 4 -14 1 -17 -7 -9 -22 7
-24 165 -25 141 -2 146 -1 151 20 5 19 3 21 -27 16 -18 -3 -39 -1 -47 5 -11 8
-11 9 3 4 10 -3 20 -1 23 4 4 6 1 10 -4 10 -6 0 -11 9 -11 19 0 11 -9 26 -21
34 -12 9 -16 16 -9 19 8 2 3 17 -14 42 -14 21 -26 47 -26 57 0 17 -3 17 -35 3
-31 -13 -35 -13 -35 1 0 9 6 12 15 9 17 -7 19 4 5 26 -9 13 -11 13 -19 1 -5
-8 -19 -16 -31 -18 -18 -2 -20 1 -15 17 4 12 1 27 -5 35 -10 12 -9 15 4 15 19
0 20 7 1 40 -8 14 -14 35 -15 48 0 23 -24 31 -35 11 -4 -6 -13 -8 -20 -5 -8 3
-15 1 -17 -4 -5 -15 -21 2 -45 45 -12 22 -29 39 -38 39 -10 -1 -15 7 -15 26 0
21 -6 29 -25 34 -17 4 -25 13 -25 27 0 29 22 47 78 65 42 14 49 19 44 37 -3
12 -7 16 -9 10 -3 -8 -10 -6 -23 5 -40 36 -49 42 -64 36 -22 -8 -42 6 -25 18
10 7 5 8 -16 5 -20 -4 -37 0 -49 11 -18 16 -19 16 -12 -3z m35 -121 c-14 -18
-24 -11 -15 11 3 9 11 13 16 10 8 -5 7 -11 -1 -21z m-34 -164 c3 -5 1 -10 -4
-10 -6 0 -11 5 -11 10 0 6 2 10 4 10 3 0 8 -4 11 -10z m-75 -14 c0 -8 5 -16
12 -18 13 -5 20 -38 7 -38 -8 0 -39 51 -39 65 0 3 5 5 10 5 6 0 10 -6 10 -14z
m-125 -16 c3 -5 1 -10 -4 -10 -6 0 -11 5 -11 10 0 6 2 10 4 10 3 0 8 -4 11
-10z m59 4 c9 -3 16 -11 16 -16 0 -6 -6 -8 -14 -5 -8 3 -18 -5 -25 -20 -8 -17
-17 -23 -27 -19 -9 3 -22 6 -30 6 -9 0 -12 5 -9 10 4 6 16 8 27 4 14 -4 18 -2
14 5 -5 7 -1 9 8 5 11 -4 16 0 16 15 0 23 1 24 24 15z m291 -13 c-3 -6 -11
-11 -17 -11 -6 0 -6 6 2 15 14 17 26 13 15 -4z m-250 -20 c-3 -10 -1 -30 4
-44 7 -19 6 -27 -4 -30 -17 -7 -26 51 -11 75 14 23 19 23 11 -1z m80 9 c3 -5
1 -10 -4 -10 -6 0 -11 5 -11 10 0 6 2 10 4 10 3 0 8 -4 11 -10z m75 -21 c0 -6
-4 -7 -10 -4 -5 3 -10 11 -10 16 0 6 5 7 10 4 6 -3 10 -11 10 -16z m40 11 c0
-5 -4 -10 -10 -10 -5 0 -10 5 -10 10 0 6 5 10 10 10 6 0 10 -4 10 -10z m-150
-67 c0 -2 -7 2 -15 11 -8 8 -15 23 -15 33 0 13 4 10 15 -11 8 -15 15 -30 15
-33z m60 43 c0 -17 -14 -29 -23 -20 -8 8 3 34 14 34 5 0 9 -6 9 -14z m205 -36
c3 -5 1 -10 -4 -10 -6 0 -11 5 -11 10 0 6 2 10 4 10 3 0 8 -4 11 -10z m-182
-31 c-5 -5 -17 -7 -27 -3 -15 6 -14 8 6 18 24 12 38 2 21 -15z m237 16 c0 -8
-4 -15 -10 -15 -5 0 -10 7 -10 15 0 8 5 15 10 15 6 0 10 -7 10 -15z m40 5 c0
-5 -4 -10 -9 -10 -6 0 -13 5 -16 10 -3 6 1 10 9 10 9 0 16 -4 16 -10z m-210
-10 c0 -5 -5 -10 -11 -10 -5 0 -7 5 -4 10 3 6 8 10 11 10 2 0 4 -4 4 -10z m56
-26 c-22 -21 -14 -57 12 -59 30 -2 37 -12 22 -31 -12 -13 -11 -17 1 -26 12 -8
12 -9 -1 -5 -9 3 -14 14 -12 30 3 25 1 26 -24 17 -15 -6 -27 -9 -28 -8 0 2 -7
13 -13 25 -17 30 -16 34 4 26 10 -4 14 -2 10 4 -8 12 18 43 34 43 6 0 3 -7 -5
-16z m-371 -22 c-3 -3 -11 0 -18 7 -9 10 -8 11 6 5 10 -3 15 -9 12 -12z m180
8 c3 -5 2 -10 -4 -10 -5 0 -13 5 -16 10 -3 6 -2 10 4 10 5 0 13 -4 16 -10z
m-16 -24 c7 -8 8 -17 3 -20 -6 -3 -12 3 -15 14 -6 24 -4 25 12 6z m-26 -21
c-8 -22 -22 -18 -16 5 3 11 9 17 14 15 4 -3 6 -12 2 -20z m200 -55 c22 -52 22
-59 -3 -32 -11 12 -27 19 -35 16 -8 -4 -15 -1 -15 5 0 6 7 11 16 11 11 0 14 6
9 20 -12 36 10 21 28 -20z m-173 -1 c0 -6 -4 -7 -10 -4 -5 3 -10 11 -10 16 0
6 5 7 10 4 6 -3 10 -11 10 -16z m280 -19 c0 -5 -7 -10 -16 -10 -8 0 -12 5 -9
10 3 6 10 10 16 10 5 0 9 -4 9 -10z m80 -60 c-19 -13 -30 -13 -30 0 0 6 10 10
23 10 18 0 19 -2 7 -10z m-178 -52 c-7 -7 -12 -8 -12 -2 0 14 12 26 19 19 2
-3 -1 -11 -7 -17z"/>
<path d="M0 740 c0 -5 5 -10 11 -10 5 0 7 5 4 10 -3 6 -8 10 -11 10 -2 0 -4
-4 -4 -10z"/>
<path d="M2713 734 c-9 -9 -10 -15 -2 -20 7 -4 0 -16 -18 -33 -39 -34 -51 -65
-23 -56 24 8 25 2 3 -20 -9 -10 -18 -27 -19 -39 -1 -11 -8 -41 -14 -66 -7 -25
-12 -52 -13 -60 0 -8 -3 -17 -6 -20 -4 -3 -26 -57 -50 -120 -24 -63 -65 -157
-92 -207 l-49 -93 249 0 248 0 31 30 c18 16 36 30 42 30 18 0 11 29 -9 40 -15
8 -34 5 -75 -11 -31 -11 -58 -25 -61 -30 -9 -13 -71 -11 -83 4 -5 6 -13 50
-17 97 -4 47 -9 88 -11 91 -2 4 -8 37 -13 75 -9 61 -8 76 14 141 31 90 31 109
5 109 -11 0 -20 -4 -20 -9 0 -4 -5 -5 -12 -1 -7 4 -8 3 -4 -5 10 -16 -23 -26
-37 -12 -8 8 -9 14 -1 19 15 9 57 139 50 151 -4 5 -1 11 6 13 7 3 8 7 3 10 -6
3 -16 0 -22 -8z m-18 -84 c3 -5 1 -10 -4 -10 -6 0 -11 5 -11 10 0 6 2 10 4 10
3 0 8 -4 11 -10z m30 -122 c-11 -6 -23 -16 -26 -21 -8 -11 -29 -1 -29 15 0 5
6 8 13 5 8 -3 20 -1 28 4 8 5 19 9 24 9 6 -1 1 -6 -10 -12z m-53 -270 c-9 -9
-12 -7 -12 12 0 19 3 21 12 12 9 -9 9 -15 0 -24z"/>
<path d="M13 713 c-8 -3 -13 -24 -13 -55 0 -48 1 -50 18 -36 9 9 23 13 30 11
15 -6 16 13 2 22 -6 4 -10 14 -9 23 4 41 -1 47 -28 35z m17 -13 c0 -5 -5 -10
-11 -10 -5 0 -7 5 -4 10 3 6 8 10 11 10 2 0 4 -4 4 -10z"/>
<path d="M2610 702 c0 -7 -4 -11 -9 -7 -5 3 -12 2 -15 -3 -2 -4 4 -13 14 -20
23 -14 35 0 21 25 -6 11 -11 13 -11 5z"/>
<path d="M2380 663 c0 -19 21 -27 33 -13 9 10 9 11 -2 5 -8 -4 -17 -2 -22 6
-6 9 -9 10 -9 2z"/>
<path d="M2580 666 c0 -2 7 -9 15 -16 13 -11 14 -10 9 4 -5 14 -24 23 -24 12z"/>
<path d="M644 623 c5 -8 6 -17 2 -20 -4 -4 -11 -1 -16 7 -6 8 -10 10 -10 4 0
-6 7 -17 15 -24 12 -10 15 -10 15 1 0 11 2 11 10 -1 5 -8 10 -10 10 -4 0 7 -8
20 -17 31 -10 10 -14 13 -9 6z"/>
<path d="M710 600 c0 -5 5 -10 11 -10 5 0 7 5 4 10 -3 6 -8 10 -11 10 -2 0 -4
-4 -4 -10z"/>
<path d="M716 565 c4 -8 10 -12 15 -9 11 6 2 24 -11 24 -5 0 -7 -7 -4 -15z"/>
<path d="M460 471 c0 -5 5 -13 10 -16 6 -3 10 -2 10 4 0 5 -4 13 -10 16 -5 3
-10 2 -10 -4z"/>
<path d="M90 250 c0 -5 7 -10 15 -10 8 0 15 5 15 10 0 6 -7 10 -15 10 -8 0
-15 -4 -15 -10z"/>
<path d="M243 53 c4 -3 2 -12 -4 -20 -9 -10 -7 -13 8 -13 12 0 19 7 19 20 0
11 -7 20 -15 20 -8 0 -11 -3 -8 -7z"/>
</g>
</svg>
